<svg width="24" height="24" viewBox="0 0 24 24" fill="none" xmlns="http://www.w3.org/2000/svg">
<path d="M6 9C6 7.4087 6.63214 5.88258 7.75736 4.75736C8.88258 3.63214 10.4087 3 12 3C13.5913 3 15.1174 3.63214 16.2426 4.75736C17.3679 5.88258 18 7.4087 18 9C18 16 21 18 21 18H3C3 18 6 16 6 9Z" stroke="#414A58" stroke-width="1.5" stroke-linecap="round" stroke-linejoin="round"/>
<path d="M10.2998 20C10.4672 20.3044 10.7133 20.5583 11.0123 20.7352C11.3113 20.912 11.6524 21.0053 11.9998 21.0053C12.3472 21.0053 12.6883 20.912 12.9873 20.7352C13.2864 20.5583 13.5324 20.3044 13.6998 20" stroke="#414A58" stroke-width="1.5" stroke-linecap="round" stroke-linejoin="round"/>
</svg>
