<svg width="71" height="70" viewBox="0 0 71 70" fill="none" xmlns="http://www.w3.org/2000/svg">
<rect x="1.5" y="1" width="68" height="68" rx="34" stroke="#D0D0DB" stroke-width="2"/>
<path d="M23.501 50H44.501C45.2966 50 46.0597 49.6839 46.6223 49.1213C47.1849 48.5587 47.501 47.7956 47.501 47V27.5L40.001 20H26.501C25.7053 20 24.9423 20.3161 24.3797 20.8787C23.817 21.4413 23.501 22.2044 23.501 23V29" stroke="#D0D0DB" stroke-width="2" stroke-linecap="round" stroke-linejoin="round"/>
<path d="M38.499 20V26C38.499 26.7956 38.8151 27.5587 39.3777 28.1213C39.9403 28.6839 40.7034 29 41.499 29H47.499" stroke="#D0D0DB" stroke-width="2" stroke-linecap="round" stroke-linejoin="round"/>
<path d="M29.5 35.75L22 43.25" stroke="#D0D0DB" stroke-width="2" stroke-linecap="round" stroke-linejoin="round"/>
<path d="M22 35.75L29.5 43.25" stroke="#D0D0DB" stroke-width="2" stroke-linecap="round" stroke-linejoin="round"/>
</svg>
